<?xml version="1.0" standalone="no"?>
<!DOCTYPE svg PUBLIC "-//W3C//DTD SVG 20010904//EN"
 "http://www.w3.org/TR/2001/REC-SVG-20010904/DTD/svg10.dtd">
<svg version="1.0" xmlns="http://www.w3.org/2000/svg"
 width="512.000000pt" height="512.000000pt" viewBox="0 0 512.000000 512.000000"
 preserveAspectRatio="xMidYMid meet">
<metadata>
Created by potrace 1.15, written by Peter Selinger 2001-2017
</metadata>
<g transform="translate(0.000000,512.000000) scale(0.100000,-0.100000)"
fill="#000000" stroke="none">
<path d="M214 5109 c-83 -24 -181 -125 -204 -209 -7 -25 -9 -800 -8 -2361 l3
-2324 23 -43 c29 -55 89 -115 144 -144 l43 -23 2345 0 2345 0 43 23 c55 29
115 89 144 144 l23 43 0 2345 0 2345 -23 43 c-29 55 -89 115 -144 144 l-43 23
-2330 2 c-1384 1 -2343 -2 -2361 -8z m2536 -643 c438 -94 769 -483 770 -905
l0 -83 -27 4 c-16 3 -89 15 -163 27 -74 12 -144 24 -156 26 -18 4 -22 14 -27
62 -15 169 -130 342 -288 436 -100 59 -155 72 -299 72 -144 0 -199 -13 -299
-72 -158 -94 -273 -267 -288 -436 -5 -48 -9 -58 -27 -62 -12 -2 -82 -14 -156
-26 -74 -12 -147 -24 -162 -27 l-28 -4 0 83 c1 419 330 808 765 904 80 18 303
18 385 1z m330 -1090 c277 -35 586 -102 820 -178 l105 -34 -2 -265 c-1 -145
-7 -309 -13 -364 -89 -789 -584 -1488 -1303 -1841 -61 -30 -118 -54 -127 -54
-25 0 -222 99 -330 166 -600 370 -1001 992 -1096 1694 -9 69 -14 202 -14 386
l0 281 119 37 c313 98 578 148 986 190 104 10 736 -3 855 -18z"/>
<path d="M2502 2908 c-107 -16 -205 -88 -259 -190 -25 -48 -28 -62 -28 -158 0
-92 3 -111 24 -150 37 -70 70 -108 123 -142 l49 -32 -68 -35 c-83 -44 -158
-118 -200 -196 -36 -70 -49 -114 -57 -207 l-7 -68 481 0 481 0 -7 68 c-8 93
-21 137 -57 207 -42 78 -117 152 -200 196 l-68 35 49 32 c53 34 86 72 123 142
21 39 24 58 24 150 0 96 -3 110 -28 158 -73 139 -219 213 -375 190z"/>
</g>
</svg>
